<?xml version="1.0" standalone="no"?><!DOCTYPE svg PUBLIC "-//W3C//DTD SVG 1.1//EN" "http://www.w3.org/Graphics/SVG/1.1/DTD/svg11.dtd"><svg height="1024" node-id="1" sillyvg="true" template-height="1024" template-width="1024" version="1.1" viewBox="0 0 1024 1024" width="1024" xmlns="http://www.w3.org/2000/svg" xmlns:xlink="http://www.w3.org/1999/xlink"><defs node-id="52"></defs><g node-id="165"><g node-id="176"><path d="M 715.70 689.10 C 718.60 690.10 721.60 690.90 724.50 691.70 L 724.10 693.20 C 721.10 692.40 718.10 691.50 715.20 690.50 L 715.70 689.10 L 715.70 689.10 Z M 733.50 693.80 C 736.50 694.40 739.50 694.90 742.60 695.40 L 742.40 696.90 C 739.30 696.50 736.30 695.90 733.20 695.30 L 733.50 693.80 L 733.50 693.80 Z M 751.70 696.50 C 754.70 696.80 757.80 696.90 760.90 697.00 L 760.90 698.60 C 757.80 698.50 754.70 698.30 751.60 698.10 L 751.70 696.50 L 751.70 696.50 Z M 901.10 462.70 L 902.50 461.90 C 904.00 464.60 905.50 467.30 906.90 470.10 L 905.50 470.80 C 904.10 468.00 902.60 465.30 901.10 462.70 L 901.10 462.70 Z M 770.10 697.00 C 773.20 696.90 776.30 696.70 779.30 696.40 L 779.40 698.00 C 776.30 698.30 773.20 698.50 770.10 698.60 L 770.10 697.00 L 770.10 697.00 Z M 909.30 479.20 L 910.70 478.60 C 911.90 481.40 913.00 484.40 914.10 487.30 L 912.60 487.80 C 911.60 484.90 910.50 482.00 909.30 479.20 L 909.30 479.20 Z M 788.40 695.30 C 791.40 694.80 794.50 694.30 797.50 693.70 L 797.80 695.20 C 794.80 695.80 791.70 696.40 788.60 696.80 C 788.70 696.90 788.40 695.30 788.40 695.30 Z M 915.50 496.50 L 917.00 496.10 C 917.90 499.10 918.70 502.10 919.30 505.10 L 917.80 505.40 C 917.10 502.40 916.30 499.40 915.50 496.50 Z M 806.40 691.50 C 809.40 690.70 812.30 689.80 815.20 688.80 L 815.70 690.30 C 812.80 691.30 809.80 692.20 806.80 693.00 L 806.40 691.50 Z M 919.60 514.50 L 921.10 514.20 C 921.60 517.20 922.00 520.30 922.40 523.40 L 920.80 523.60 C 920.50 520.50 920.10 517.50 919.60 514.50 L 919.60 514.50 Z M 823.90 685.60 C 826.70 684.50 829.60 683.20 832.30 681.90 L 833.00 683.30 C 830.20 684.60 827.30 685.90 824.50 687.00 L 823.90 685.60 L 823.90 685.60 Z M 921.50 532.80 L 923.10 532.70 C 923.20 535.80 923.30 538.90 923.30 542.00 L 921.70 542.00 C 921.70 538.90 921.70 535.80 921.50 532.80 L 921.50 532.80 Z M 840.50 677.70 C 843.20 676.20 845.80 674.70 848.40 673.00 L 849.20 674.30 C 846.60 675.90 843.90 677.50 841.20 679.00 L 840.50 677.70 L 840.50 677.70 Z M 921.30 551.20 L 922.90 551.30 C 922.70 554.40 922.40 557.50 922.00 560.60 L 920.40 560.40 C 920.80 557.30 921.10 554.20 921.30 551.20 L 921.30 551.20 Z M 856.10 667.90 C 858.60 666.10 861.00 664.20 863.40 662.30 L 864.40 663.50 C 862.00 665.40 859.50 667.30 857.00 669.10 L 856.10 667.90 L 856.10 667.90 Z M 919.00 569.50 L 920.50 569.80 C 919.90 572.80 919.30 575.90 918.50 578.90 L 917.00 578.50 C 917.80 575.50 918.40 572.50 919.00 569.50 L 919.00 569.50 Z M 870.40 656.30 C 872.70 654.20 874.90 652.10 877.00 649.90 L 878.10 651.00 C 875.90 653.20 873.70 655.40 871.40 657.50 L 870.40 656.30 L 870.40 656.30 Z M 914.60 587.30 L 916.10 587.80 C 915.20 590.70 914.20 593.70 913.10 596.60 L 911.60 596.00 C 912.60 593.20 913.60 590.20 914.60 587.30 L 914.60 587.30 Z M 883.30 643.20 C 885.30 640.90 887.30 638.50 889.10 636.10 L 890.30 637.10 C 888.40 639.50 886.40 642.00 884.40 644.30 L 883.30 643.20 L 883.30 643.20 Z M 908.00 604.50 L 909.40 605.10 C 908.10 607.90 906.80 610.70 905.40 613.50 L 904.00 612.80 C 905.40 610.10 906.80 607.30 908.00 604.50 L 908.00 604.50 Z M 894.60 628.60 C 896.30 626.10 898.00 623.50 899.60 620.80 L 900.90 621.60 C 899.30 624.30 897.60 626.90 895.90 629.40 L 894.60 628.60 L 894.60 628.60 Z" fill="#777f99" fill-rule="nonzero" group-id="1,12" node-id="60" stroke="none" target-height="236.69998" target-width="208.09998" target-x="715.2" target-y="461.9"></path></g><path d="M 702.70 684.10 C 704.10 684.70 705.60 685.30 707.00 685.90 L 706.40 687.40 C 704.90 686.80 703.50 686.20 702.00 685.60 L 702.70 684.10 L 702.70 684.10 Z" fill="#777f99" fill-rule="nonzero" group-id="1,13" node-id="65" stroke="none" target-height="3.3001099" target-width="5" target-x="702" target-y="684.1"></path></g><g node-id="166"><g node-id="178"><path d="M 198.90 515.60 C 197.90 514.40 196.90 513.10 196.00 511.80 L 197.30 510.90 C 198.20 512.10 199.20 513.40 200.10 514.60 L 198.90 515.60 L 198.90 515.60 Z" fill="#777f99" fill-rule="nonzero" group-id="2,14" node-id="73" stroke="none" target-height="4.700012" target-width="4.100006" target-x="196" target-y="510.89996"></path></g><g node-id="179"><path d="M 190.90 503.80 C 189.40 501.00 188.00 498.20 186.80 495.20 L 188.30 494.60 C 189.40 497.50 190.80 500.30 192.30 503.00 L 190.90 503.80 L 190.90 503.80 Z M 183.90 486.20 C 183.10 483.20 182.50 480.00 182.10 476.90 L 183.60 476.70 C 184.00 479.80 184.60 482.80 185.40 485.80 L 183.90 486.20 Z M 181.30 467.50 C 181.30 464.30 181.40 461.20 181.80 458.00 L 183.40 458.20 C 183.10 461.30 182.90 464.40 182.90 467.50 L 181.30 467.50 L 181.30 467.50 Z M 183.40 448.70 C 184.10 445.60 185.10 442.60 186.20 439.60 L 187.70 440.10 C 186.60 443.00 185.70 446.00 185.00 449.00 L 183.40 448.70 L 183.40 448.70 Z M 190.00 430.90 C 191.30 428.30 192.90 425.80 194.50 423.30 L 194.90 422.70 L 196.20 423.60 L 195.80 424.20 C 194.20 426.60 192.70 429.10 191.40 431.60 L 190.00 430.90 L 190.00 430.90 Z M 202.00 416.40 L 200.80 415.40 C 202.90 413.10 205.20 410.80 207.50 408.70 L 208.50 409.90 C 206.20 411.90 204.00 414.10 202.00 416.40 L 202.00 416.40 Z M 215.90 404.10 L 215.00 402.80 C 217.60 401.00 220.30 399.40 223.10 397.90 L 223.80 399.30 C 221.10 400.80 218.40 402.40 215.90 404.10 L 215.90 404.10 Z M 232.40 395.60 L 231.90 394.10 C 234.90 393.00 237.90 392.10 241.00 391.40 L 241.40 392.90 C 238.30 393.70 235.30 394.60 232.40 395.60 L 232.40 395.60 Z M 250.40 391.40 L 250.20 389.80 C 253.30 389.50 256.50 389.30 259.70 389.40 L 259.70 391.00 C 256.60 391.00 253.50 391.10 250.40 391.40 L 250.40 391.40 Z M 269.00 391.70 L 269.20 390.20 C 272.30 390.60 275.40 391.30 278.50 392.10 L 278.10 393.60 C 275.10 392.80 272.00 392.20 269.00 391.70 L 269.00 391.70 Z" fill="#777f99" fill-rule="nonzero" group-id="2,15" node-id="78" stroke="none" target-height="114.49997" target-width="97.2" target-x="181.3" target-y="389.3"></path></g><path d="M 286.90 396.50 L 287.50 395.10 C 289.00 395.70 290.40 396.30 291.80 397.00 L 291.10 398.40 C 289.80 397.80 288.30 397.10 286.90 396.50 L 286.90 396.50 Z" fill="#777f99" fill-rule="nonzero" group-id="2,16" node-id="83" stroke="none" target-height="3.2999878" target-width="4.899994" target-x="286.9" target-y="395.1"></path></g><g node-id="167"><path d="M 308.80 594.00 L 679.00 594.00 C 685.20 594.00 691.20 591.50 695.70 587.10 C 700.10 582.70 702.60 576.70 702.60 570.40 L 702.60 422.00 C 702.60 318.20 626.80 232.10 527.50 216.10 C 529.10 212.00 529.90 207.60 529.90 203.20 C 529.90 188.80 521.30 175.70 508.00 170.10 C 494.70 164.50 479.30 167.30 468.90 177.30 C 458.50 187.30 455.10 202.60 460.30 216.10 C 361.00 232.20 285.20 318.30 285.20 422.00 L 285.20 570.40 C 285.20 583.40 295.80 594.00 308.80 594.00 Z" fill="#bad6f7" fill-rule="nonzero" group-id="3" node-id="89" stroke="none" target-height="429.5" target-width="417.39996" target-x="285.2" target-y="164.5"></path></g><g node-id="168"><path d="M 493.80 798.40 C 525.90 798.40 552.00 772.30 552.00 740.20 L 435.60 740.20 C 435.60 755.60 441.70 770.40 452.60 781.40 C 463.50 792.40 478.40 798.40 493.80 798.40 Z" fill="#3a3a77" fill-rule="nonzero" group-id="4" node-id="94" stroke="none" target-height="58.200012" target-width="116.399994" target-x="435.6" target-y="740.2"></path></g><path d="M 782.90 675.10 L 770.80 651.00 C 760.10 629.50 736.20 613.20 716.80 613.20 L 270.90 613.20 C 251.50 613.20 227.60 629.40 216.90 651.00 L 204.80 675.10 C 192.10 700.50 200.00 722.90 223.60 722.90 L 764.20 722.90 C 787.70 722.80 795.70 700.50 782.90 675.10 Z" fill="#bad6f7" fill-rule="nonzero" node-id="97" stroke="none" target-height="109.70001" target-width="603.6" target-x="192.1" target-y="613.2"></path><path d="M 499.30 798.20 C 529.20 795.40 552.10 770.30 552.10 740.20 L 499.30 740.20 L 499.30 798.20 Z" fill="#3a3a77" fill-rule="nonzero" node-id="99" stroke="none" target-height="57.99994" target-width="52.799988" target-x="499.3" target-y="740.2"></path><g node-id="169"><path d="M 770.80 650.90 C 760.10 629.40 736.20 613.10 716.80 613.10 L 499.30 613.10 L 499.30 722.80 L 764.20 722.80 C 787.80 722.80 795.70 700.50 783.00 675.00 L 770.80 650.90 Z" fill="#cedfff" fill-rule="nonzero" group-id="5" node-id="103" stroke="none" target-height="109.70001" target-width="296.40002" target-x="499.3" target-y="613.1"></path></g><path d="M 729.60 182.10 L 765.70 216.40 L 694.00 242.10 L 729.60 182.10 Z" fill="#d3dcf4" fill-rule="nonzero" node-id="106" stroke="none" target-height="60" target-width="71.70001" target-x="694" target-y="182.1"></path><path d="M 704.20 261.10 L 808.40 236.60 L 808.40 288.70 L 704.20 261.10 Z" fill="#d3dcf4" fill-rule="nonzero" node-id="108" stroke="none" target-height="52.100006" target-width="104.19995" target-x="704.2001" target-y="236.6"></path><path d="M 916.20 528.70 L 881.90 501.00 L 746.80 491.40 C 732.60 490.40 722.00 478.10 723.00 463.90 L 726.90 408.90 C 727.90 394.70 740.20 384.10 754.40 385.10 L 901.10 395.60 C 915.30 396.70 925.90 408.90 924.90 423.10 L 921.00 478.10 C 920.00 492.10 917.50 510.30 916.20 528.70 Z" fill="#4c96ec" fill-rule="nonzero" node-id="110" stroke="none" target-height="144.59998" target-width="203.90009" target-x="722" target-y="384.10004"></path><path d="M 796.50 440.10 C 796.50 450.90 787.70 459.70 776.90 459.70 C 766.10 459.70 757.30 450.90 757.30 440.10 C 757.30 429.30 766.10 420.50 776.90 420.50 C 787.70 420.50 796.50 429.30 796.50 440.10 Z" fill="#fe9f39" fill-rule="nonzero" node-id="112" stroke="none" target-height="39.200012" target-width="39.19989" target-x="757.30005" target-y="420.5"></path><path d="M 823.30 435.40 L 883.20 439.70 L 884.80 440.00 L 886.20 440.50 L 887.50 441.20 L 888.60 442.10 L 889.50 443.20 L 890.30 444.50 L 890.80 445.90 L 891.10 447.40 L 891.10 449.00 L 891.10 449.00 L 890.80 450.60 L 890.30 452.00 L 889.60 453.30 L 888.70 454.40 L 887.60 455.30 L 886.30 456.10 L 884.90 456.60 L 883.40 456.90 L 881.80 456.90 L 821.90 452.60 L 820.30 452.30 L 818.90 451.80 L 817.60 451.10 L 816.50 450.20 L 815.60 449.10 L 814.80 447.80 L 814.30 446.40 L 814.00 444.90 L 814.00 443.30 L 814.00 443.30 L 814.30 441.70 L 814.80 440.30 L 815.50 439.00 L 816.40 437.90 L 817.50 437.00 L 818.80 436.20 L 820.20 435.70 L 821.70 435.40 Z" fill="#ebf0ff" fill-rule="nonzero" node-id="114" stroke="none" target-height="21.5" target-width="77.099976" target-x="814" target-y="435.4"></path><g node-id="170"><path d="M 151.30 615.80 C 151.30 610.40 157.40 571.10 175.80 550.20 C 200.10 518.00 234.70 495.70 288.50 495.70 C 350.80 495.70 401.20 527.80 401.20 567.40 C 401.20 607.00 350.70 639.10 288.50 639.10 C 243.20 639.10 208.40 627.50 190.50 603.00 C 174.50 595.60 153.10 622.60 151.30 615.80 Z" fill="#e0eaff" fill-rule="nonzero" group-id="6" node-id="118" stroke="none" target-height="143.39996" target-width="249.90001" target-x="151.3" target-y="495.7"></path></g><g node-id="171"><path d="M 237.00 541.10 L 300.10 541.10 C 304.20 541.10 307.50 544.40 307.50 548.50 L 307.50 548.50 C 307.50 552.60 304.20 555.90 300.10 555.90 L 237.00 555.90 C 232.90 555.90 229.60 552.60 229.60 548.50 L 229.60 548.50 C 229.70 544.40 233.00 541.10 237.00 541.10 Z" fill="#3a3a77" fill-rule="nonzero" group-id="7" node-id="123" stroke="none" target-height="14.800049" target-width="77.899994" target-x="229.6" target-y="541.1"></path></g><g node-id="172"><path d="M 346.70 547.80 C 346.70 553.90 341.80 558.80 335.70 558.80 C 329.60 558.80 324.70 553.90 324.70 547.80 C 324.70 541.70 329.60 536.80 335.70 536.80 C 341.80 536.80 346.70 541.70 346.70 547.80 Z" fill="#fe9f39" fill-rule="nonzero" group-id="8" node-id="128" stroke="none" target-height="22" target-width="22" target-x="324.7" target-y="536.8"></path></g><g node-id="173"><path d="M 237.00 579.10 L 300.10 579.10 C 304.20 579.10 307.50 582.40 307.50 586.50 L 307.50 586.50 C 307.50 590.60 304.20 593.90 300.10 593.90 L 237.00 593.90 C 232.90 593.90 229.60 590.60 229.60 586.50 L 229.60 586.50 C 229.70 582.40 233.00 579.10 237.00 579.10 Z" fill="#3a3a77" fill-rule="nonzero" group-id="9" node-id="133" stroke="none" target-height="14.800049" target-width="77.899994" target-x="229.6" target-y="579.1"></path></g><g node-id="174"><path d="M 346.70 584.00 C 346.70 590.10 341.80 595.00 335.70 595.00 C 329.60 595.00 324.70 590.10 324.70 584.00 C 324.70 577.90 329.60 573.00 335.70 573.00 C 341.80 573.00 346.70 577.90 346.70 584.00 Z" fill="#fe9f39" fill-rule="nonzero" group-id="10" node-id="138" stroke="none" target-height="22" target-width="22" target-x="324.7" target-y="573"></path></g><path d="M 746.70 838.40 C 746.70 838.30 746.70 838.30 746.70 838.20 L 746.70 767.10 L 699.10 767.10 L 699.10 838.40 C 699.10 839.00 699.50 839.60 700.10 839.90 L 720.20 851.50 C 721.70 852.40 724.40 852.20 726.10 851.30 L 745.20 840.30 C 746.00 839.90 746.60 839.30 746.70 838.40 L 746.70 838.40 L 746.70 838.40 Z" fill="#949fff" fill-rule="nonzero" node-id="141" stroke="none" target-height="85.30011" target-width="47.599976" target-x="699.1" target-y="767.0999"></path><path d="M 720.20 780.40 L 700.10 768.80 C 698.60 767.90 698.80 766.40 700.50 765.40 L 719.60 754.40 C 721.40 753.40 724.00 753.30 725.50 754.10 L 745.60 765.70 C 747.10 766.60 746.90 768.10 745.20 769.10 L 726.10 780.10 C 724.40 781.10 721.80 781.20 720.20 780.40 Z" fill="#dee6ff" fill-rule="nonzero" node-id="143" stroke="none" target-height="27.900085" target-width="48.5" target-x="698.6" target-y="753.2999"></path><path d="M 115.50 836.70 C 115.50 836.60 115.50 836.60 115.50 836.50 L 115.50 662.50 L 67.90 662.50 L 67.90 836.70 C 67.90 837.30 68.30 837.90 68.90 838.20 L 89.00 849.80 C 90.50 850.70 93.20 850.50 94.90 849.60 L 114.00 838.60 C 114.70 838.20 115.30 837.50 115.50 836.70 L 115.50 836.70 Z" fill="#dee1f0" fill-rule="nonzero" node-id="145" stroke="none" target-height="188.20001" target-width="47.6" target-x="67.9" target-y="662.5"></path><path d="M 89.00 675.70 L 68.90 664.10 C 67.40 663.20 67.60 661.70 69.30 660.70 L 88.40 649.70 C 90.10 648.70 92.80 648.60 94.30 649.40 C 95.30 650.00 102.00 653.80 114.40 661.00 C 115.90 661.90 115.70 663.40 114.00 664.40 L 94.90 675.40 C 93.20 676.50 90.60 676.60 89.00 675.70 Z" fill="#fafbfd" fill-rule="nonzero" node-id="147" stroke="none" target-height="28" target-width="48.500008" target-x="67.4" target-y="648.6"></path><g node-id="175"><g node-id="181"><path d="M 977.00 861.10 L 30.00 861.10 L 30.00 858.00 C 30.00 848.60 37.60 841.00 47.00 841.00 L 960.00 841.00 C 969.40 841.00 977.00 848.60 977.00 858.00 L 977.00 861.10 Z" fill="#b7cdeb" fill-rule="nonzero" group-id="11,17" node-id="153" stroke="none" target-height="20.099976" target-width="947" target-x="30" target-y="841"></path></g></g><path d="M 781.10 806.50 C 778.20 812.50 776.20 818.60 777.30 825.40 C 776.40 834.00 779.60 841.90 790.60 843.90 C 794.70 844.70 820.30 845.30 821.60 845.20 C 833.80 844.70 844.90 840.90 854.80 834.10 C 858.70 831.40 863.20 828.40 862.50 822.40 C 862.50 819.90 862.70 817.40 864.70 815.50 C 875.20 811.10 886.40 809.10 897.10 805.20 C 902.30 803.30 906.50 800.80 906.60 794.20 C 906.70 790.40 910.00 788.10 913.30 786.20 C 920.20 782.20 927.80 780.00 935.10 777.00 C 939.00 775.40 942.30 773.10 945.90 771.20 C 947.80 770.20 950.30 768.50 950.00 766.00 C 948.90 756.90 954.90 752.10 961.10 747.70 C 966.10 744.10 970.30 739.90 974.00 735.10 C 974.00 733.10 974.00 731.10 974.00 729.20 C 969.70 718.90 956.00 716.90 947.00 720.30 C 936.60 724.30 928.90 723.00 920.40 716.30 C 912.80 710.30 901.20 712.50 892.90 720.30 C 890.40 722.70 887.90 725.10 885.50 727.70 C 880.60 732.80 874.60 734.30 867.80 732.80 C 860.90 731.30 855.40 732.80 850.20 737.80 C 844.00 743.80 839.30 751.00 833.90 757.60 C 830.70 761.50 827.10 764.30 821.80 763.90 C 819.20 763.70 816.90 764.60 814.80 765.90 C 799.40 775.90 788.40 789.60 781.10 806.50" fill="#b1c6d9" fill-rule="nonzero" node-id="157" stroke="none" target-height="135" target-width="197.79999" target-x="776.2" target-y="710.3"></path><path d="M 190.10 807.80 C 185.60 802.70 180.60 798.00 173.00 797.10 C 169.60 796.70 167.30 793.40 165.50 790.40 C 163.50 787.20 161.00 784.30 158.20 781.80 C 155.20 779.20 152.10 777.20 147.50 778.60 C 143.60 779.80 139.70 778.80 136.80 775.30 C 133.80 771.70 130.10 769.10 126.00 767.00 C 123.70 766.30 123.30 765.90 119.10 767.00 C 116.60 767.70 114.60 769.60 112.50 771.10 C 109.70 773.00 106.80 773.50 103.70 772.20 C 101.10 771.20 98.30 771.10 95.50 770.90 C 89.70 770.40 85.70 772.60 83.40 777.90 C 82.60 779.60 82.80 779.60 83.40 780.90 C 87.60 786.50 94.50 789.60 98.20 795.70 L 98.20 795.70 C 97.20 798.90 99.10 800.80 101.20 802.70 C 106.10 806.40 112.30 807.50 117.70 810.30 C 121.00 812.00 124.00 813.50 124.30 818.00 C 124.40 820.40 126.60 821.70 129.00 822.50 C 135.00 824.30 140.90 826.30 146.80 828.10 C 149.10 828.80 150.70 829.90 150.70 832.50 C 150.70 837.60 154.40 840.20 158.20 841.90 C 169.90 847.40 182.30 848.80 195.00 845.90 C 199.60 844.90 202.00 842.00 202.30 836.90 C 203.00 825.20 197.40 816.00 190.10 807.80 Z" fill="#b0c6da" fill-rule="nonzero" node-id="159" stroke="none" target-height="82.8999" target-width="120.4" target-x="82.6" target-y="765.9001"></path><path d="M 191.00 838.00 C 190.80 838.10 190.50 838.10 190.30 837.90 C 138.20 786.40 105.80 779.20 95.20 776.80 L 94.30 776.60 C 94.00 776.50 93.80 776.30 93.90 776.00 C 94.00 775.70 94.30 775.60 94.60 775.60 L 95.50 775.80 C 106.20 778.20 138.80 785.50 191.10 837.20 C 191.30 837.40 191.30 837.70 191.10 837.90 C 191.10 838.00 191.00 838.00 191.00 838.00 Z" fill="#95b4ce" fill-rule="nonzero" node-id="161" stroke="none" target-height="62.50006" target-width="97.49998" target-x="93.80001" target-y="775.6"></path><path d="M 787.20 834.60 C 787.60 834.80 788.00 834.70 788.30 834.40 C 874.50 749.20 928.00 737.20 945.60 733.30 L 947.10 733.00 C 947.60 732.90 947.90 732.50 947.70 732.00 C 947.60 731.60 947.10 731.30 946.60 731.40 L 945.10 731.70 C 927.40 735.70 873.50 747.70 786.90 833.30 C 786.60 833.60 786.60 834.10 787.00 834.40 C 787.00 834.50 787.10 834.50 787.20 834.60 Z" fill="#95b4ce" fill-rule="nonzero" node-id="163" stroke="none" target-height="103.50006" target-width="161.30011" target-x="786.5999" target-y="731.3"></path></svg>