<svg width="421" height="199" viewBox="0 0 421 199" fill="none" xmlns="http://www.w3.org/2000/svg">
<path d="M421 130L420 133C408.06 161.21 409.84 160.7 388.78 152.63C379.07 148.91 370.88 146.12 370.56 146.44C370.25 146.75 370 158.25 370 172V197H341C341 143.76 342.5 134.5 342.2 131.87C341.9 129.24 343.13 128.88 336.04 122.31C331.99 118.57 326.31 112.46 323.42 108.75C316.68 100.09 317.35 99.9 303.8 114.29C292.53 126.25 294 126 293.83 128.78C293.557 133.233 294.04 153.39 289.97 164.8C284 179 256.19 201 256.19 198.27C252.46 196.78 236.46 181.43 237.21 180.07C237.55 179.46 241.13 176.79 245.18 174.14C255.28 167.52 262.69 159.11 265.06 151.6C267.83 142.83 267.37 142.76 251.53 149.25C227.07 159.28 228.3 159.42 222.75 146.11C216.4 130.87 215.41 132.65 234.26 125.43C250.74 119.13 268.65 109.51 272.5 104.9C274.5 102.5 274.5 102.5 254 102C242.73 101.73 232.94 101.14 232.25 100.69C231.28 100.06 231 89.5 231 53.44V7H405V102C362.55 102 355 102.33 355 103.1C355 107.84 386.18 121.25 412.75 127.93L421 130ZM303 65H262V80H303V65ZM374 65H333V80H374V65ZM262 29V44H303V29H262ZM374 29H333V44H374V29Z" fill="#111123"/>
<path d="M81.7301 191C35.2501 191 27.5801 190.79 25.9601 189.5C22.8201 186.97 18.5001 165.77 19.8901 159.72C22.1901 149.77 22.4001 150 10.9901 150C0.980061 150 0.980061 150 0.340061 141.1C-0.539939 128.65 0.0500612 128 12.3501 128C24.2801 128 24.9701 127.49 26.1701 117.93C27.1001 110.5 27.1001 110.5 21.2201 114.41C14.1701 119.09 14.5601 119.3 6.58006 106.7C-0.58994 95.3901 -0.66994 95.8101 10.4701 85.5801C15.8601 80.6201 23.4501 72.1801 28.1001 65.9401C32.5901 59.9201 36.7701 54.9401 37.3801 54.8601C38.0001 54.7801 73.2601 54.8301 115.75 54.9801L193 55.2401V77.0001C54.6801 77.0001 54.6801 77.0001 51.2801 80.4701C49.4001 82.3801 48.1401 84.4101 48.4701 84.9701C48.8701 85.6601 71.2701 86.0001 116.03 86.0001H183V128C199 128 199 128 199 139C199 150 199 150 191 150C183 150 183 150 183 162.41C183 181.14 179.15 189.02 167.25 194.63C163.02 196.62 159.38 197.33 149.47 198.07C137 199 137 199 136.31 195C135.63 191 135.63 191 81.7301 191ZM52.5601 152.25C50.8501 160.21 50.0401 169.3 50.9701 170.11C51.5401 170.6 61.9001 170.97 74.0001 170.94C86.4501 170.91 96.0001 170.49 96.0001 169.98C96.0001 169.48 93.2401 166.12 89.8601 162.51C86.4801 158.9 83.9001 155.85 84.1101 155.72C84.3201 155.6 90.3701 155.62 97.5501 155.78C110.6 156.06 110.6 156.06 118.03 163.53C125.45 171 125.45 171 137.72 171C153.58 171 154 170.67 154 150H103.52C53.0401 150 53.0401 150 52.5601 152.25ZM58.5401 115.38C57.6901 121.09 57.0001 126.26 57.0001 126.88C57.0001 127.67 63.2801 128 78.5001 128C90.3301 128 100 127.74 100 127.41C100 127.09 97.3001 124.02 94.0001 120.58C86.2801 112.54 85.8301 113 101.58 113C115.17 113 115.17 113 123.4 120.5C131.64 128 131.64 128 154 128V105H60.0801L58.5401 115.38Z" fill="#111123"/>
<path d="M42.02 43.75C42 39 42 39 21 39H0V13C42 13 42 13 42 6.48C42 -0.0500007 42 -0.0500005 58.25 0.23C74.5 0.5 74.5 0.5 74.8 6.75L75.1 13H128C128 0 128 0 144.5 0C161 0 161 -4.76837e-07 161 6.48C161 12.96 161 12.96 181.75 13.23L202.5 13.5V38.5C161 39.04 161 39.04 161 44.52C161 50 161 50 144.5 50C128 50 128 50 128 44.5C128 39 128 39 101.5 39C75 39 75 39 75 44.5C75 50 75 50 59 50C50.2 50 42.78 49.66 42.52 49.25C42.25 48.84 42.02 46.36 42.02 43.75Z" fill="#111123"/>
<path d="M58.54 115.38L60.08 105H154V128C131.64 128 131.64 128 123.4 120.5C115.17 113 115.17 113 101.58 113C85.83 113 86.28 112.54 94 120.58C97.3 124.02 100 127.09 100 127.41C100 127.74 90.33 128 78.5 128C63.28 128 57 127.67 57 126.88C57 126.26 57.69 121.09 58.54 115.38Z" fill="#FCFCFC"/>
<path d="M52.5602 152.25C53.0402 150 53.0402 150 103.52 150H154C154 170.67 153.58 171 137.72 171C125.45 171 125.45 171 118.03 163.53C110.6 156.06 110.6 156.06 97.5502 155.78C90.3702 155.62 84.3202 155.6 84.1102 155.72C83.9002 155.85 86.4802 158.9 89.8602 162.51C93.2402 166.12 96.0002 169.48 96.0002 169.98C96.0002 170.49 86.4502 170.91 74.0002 170.94C61.9002 170.97 51.5402 170.6 50.9702 170.11C50.0402 169.3 50.8502 160.21 52.5602 152.25Z" fill="#FCFCFC"/>
<path d="M374 65V80H333V65H374Z" fill="#FCFCFC"/>
<path d="M303 65V80H262V65H303Z" fill="#FCFCFC"/>
<path d="M374 29V44H333V29H374Z" fill="#FCFCFC"/>
<path d="M262 29H303V44H262V29Z" fill="#FCFCFC"/>
</svg>
