<svg width="1621" height="1166" viewBox="0 0 1621 1166" fill="none" xmlns="http://www.w3.org/2000/svg">
<g clip-path="url(#clip0_6_181)">
<path d="M990.749 185.353L730.615 180.582C518.078 176.684 342.706 341.311 338.91 548.286C335.114 755.262 504.332 926.208 716.869 930.106L977.004 934.876C1189.54 938.774 1364.91 774.147 1368.71 567.172C1372.5 360.197 1203.29 189.25 990.749 185.353Z" fill="black" stroke="white" stroke-width="87"/>
<path d="M682.396 398.523L682.396 398.523C644.986 397.837 614.096 427.964 613.402 465.813L610.451 626.717C609.757 664.566 639.521 695.805 676.932 696.492L676.932 696.492C714.342 697.178 745.232 667.051 745.926 629.201L748.877 468.298C749.571 430.448 719.807 399.209 682.396 398.523Z" fill="white"/>
<path d="M1118.75 522.652C1146.56 504.744 1154.75 467.43 1137.07 439.308C1119.38 411.186 1082.5 402.907 1054.7 420.815L933.875 498.637C906.072 516.545 897.873 553.86 915.561 581.981C933.25 610.103 970.128 618.382 997.931 600.474L1118.75 522.652Z" fill="white"/>
<path d="M1066.95 678.663C1095.93 694.511 1132.14 683.58 1147.82 654.247C1163.49 624.915 1152.7 588.289 1123.72 572.442L997.759 503.574C968.774 487.727 932.569 498.658 916.892 527.99C901.216 557.323 912.005 593.948 940.991 609.796L1066.95 678.663Z" fill="white"/>
<path d="M357.725 462.549C372.25 460.443 381.747 469.007 386.276 475.52L387.92 478.14L389.142 480.387L389.864 482.831L392.411 491.537C397.498 485.678 402.238 480.307 405.813 476.506L409.218 472.883L413.785 470.993C425.986 465.933 439.092 466.75 449.417 474.83C457.962 481.517 461.476 490.8 462.646 496.909L463.624 502.028L462.358 507.093L454.668 537.78C466.922 542.04 478.892 547.88 489.432 553.968C507.22 564.245 524.09 577.039 534.02 588.42C569.535 628.799 622.477 738.531 564.166 866.15C536.322 927.089 505.9 965.174 477.699 987.717C450.884 1009.15 424.476 1017.58 404.47 1015.23C340.876 1012.62 201.42 973.202 151.445 831.063C110.819 715.507 146.373 641.347 186.253 606.242C180.576 600.079 174.483 593.409 168.942 587.19C164.324 582.007 159.11 574.454 158.167 564.79C157.04 553.243 162.41 544.192 168.86 538.78C174.401 534.131 180.645 532.057 184.779 531.04C189.272 529.931 193.708 529.494 197.393 529.421L201.093 529.353L204.614 530.456L217.632 534.494C217.378 532.87 217.12 531.216 216.878 529.539C215.947 523.114 215.591 515.678 217.657 508.572C220.056 500.32 226.171 491.755 236.956 488.64C245.752 486.102 253.392 488.561 257.193 490.141C260.693 491.597 263.738 493.503 266.188 495.315C271.753 498.755 281.984 505.028 292.774 511.513C299.567 506.976 307.001 505.47 313.696 505.781C315.033 505.843 316.345 505.979 317.625 506.172C321.022 500.044 324.906 493.083 328.9 486.003C334.327 476.384 343.274 464.645 357.725 462.549Z" fill="black" stroke="white" stroke-width="66"/>
<path d="M277.226 729.49C273.32 745.81 252.04 749.538 242.95 735.495C235.482 723.956 242.143 708.446 255.581 706.092C269.018 703.739 280.435 716.08 277.226 729.49Z" fill="white"/>
<path d="M330.466 813.607C326.56 829.926 305.28 833.655 296.191 819.612C288.721 808.072 295.383 792.563 308.82 790.208C322.258 787.854 333.676 800.196 330.466 813.607Z" fill="white"/>
<path d="M474.858 781.614C470.953 797.932 449.673 801.66 440.582 787.617C433.114 776.079 439.776 760.569 453.213 758.215C466.65 755.861 478.068 768.203 474.858 781.614Z" fill="white"/>
<path d="M431.625 898.602C427.72 914.921 406.44 918.65 397.35 904.607C389.881 893.068 396.542 877.558 409.98 875.204C423.417 872.85 434.836 885.192 431.625 898.602Z" fill="white"/>
<path d="M373.573 703.544C369.666 719.863 348.387 723.591 339.297 709.549C331.827 698.009 338.489 682.499 351.926 680.145C365.365 677.792 376.782 690.133 373.573 703.544Z" fill="white"/>
<path d="M469.918 677.597C466.012 693.917 444.732 697.645 435.642 683.602C428.172 672.062 434.835 656.552 448.273 654.198C461.71 651.845 473.127 664.186 469.918 677.597Z" fill="white"/>
</g>
<defs>
<clipPath id="clip0_6_181">
<rect width="1600.01" height="1136.05" fill="white" transform="translate(20.8306) rotate(1.05063)"/>
</clipPath>
</defs>
</svg>
